<?xml version="1.0" encoding="utf-8"?>
<!-- Generator: Adobe Illustrator 16.0.0, SVG Export Plug-In . SVG Version: 6.00 Build 0)  -->
<!DOCTYPE svg PUBLIC "-//W3C//DTD SVG 1.1//EN" "http://www.w3.org/Graphics/SVG/1.1/DTD/svg11.dtd">
<svg version="1.1" id="Calque_1" xmlns="http://www.w3.org/2000/svg" xmlns:xlink="http://www.w3.org/1999/xlink" x="0px" y="0px"
	 width="841.889px" height="843.084px" viewBox="0 0 841.889 843.084" enable-background="new 0 0 841.889 843.084"
	 xml:space="preserve">
<g>
	<path d="M420.206,421.482c0-10.136,4.873-19.133,12.375-24.753l262.188-200.9c0.568-0.447,1.168-0.896,1.764-1.346
		c4.755-3.378,10.583-5.381,16.892-5.381c16.083,0,29.148,13.034,29.148,29.147v406.583c0,16.084-13.065,29.148-29.148,29.148
		c-5.83,0-11.302-1.734-15.845-4.693c-0.029,0-0.029,0-0.029-0.03l-3.438-2.631l-261.53-200.393
		C425.079,440.615,420.206,431.617,420.206,421.482z"/>
	<path d="M99.317,421.482c0-10.136,4.873-19.133,12.375-24.753l262.187-200.9c0.569-0.447,1.169-0.896,1.764-1.346
		c4.755-3.378,10.584-5.381,16.893-5.381c16.083,0,29.148,13.034,29.148,29.147v406.583c0,16.083-13.065,29.148-29.148,29.148
		c-5.831,0-11.302-1.734-15.844-4.693c-0.03,0-0.03,0-0.03-0.03l-3.438-2.631l-261.53-200.393
		C104.19,440.615,99.317,431.617,99.317,421.482z"/>
</g>
</svg>
